<svg xmlns="http://www.w3.org/2000/svg" viewBox="0 0 920 420" font-family="-apple-system,'Segoe UI','Malgun Gothic',sans-serif"><rect width="920" height="420" rx="12" fill="#ffffff"/><text x="52" y="34" font-size="17" font-weight="700" fill="#1f2328">시장별 자산 추이</text><text x="52" y="54" font-size="11.5" fill="#59636e">공통 시작일=0% 수익률(+수익/−손실) · 코인/국장/미장 + 전체(달러는 FRED USD/KRW 환산) · 매매 잡 종료 시 자동 갱신 — 2026-07-24 19:17 UTC</text><rect x="52" y="70" width="16" height="4" rx="2" fill="#1f2328"/><text x="74" y="76" font-size="12" font-weight="600" fill="#1f2328">전체(KRW)</text><text x="141" y="76" font-size="12" fill="#59636e">₩173,715,367 +2.6%</text><rect x="292.28" y="70" width="16" height="4" rx="2" fill="#0d9488"/><text x="314" y="76" font-size="12" font-weight="600" fill="#1f2328">코인</text><text x="346" y="76" font-size="12" fill="#59636e">₩9,976,929 -0.9%</text><rect x="483.84" y="70" width="16" height="4" rx="2" fill="#4a3aa7"/><text x="506" y="76" font-size="12" font-weight="600" fill="#1f2328">국장</text><text x="538" y="76" font-size="12" fill="#59636e">₩8,319,021 -8.4%</text><rect x="675.4" y="70" width="16" height="4" rx="2" fill="#bf3989"/><text x="697" y="76" font-size="12" font-weight="600" fill="#1f2328">국장 일목</text><text x="762" y="76" font-size="12" fill="#59636e">₩100,076,229 +0.1%</text><rect x="913.04" y="70" width="16" height="4" rx="2" fill="#eb6834"/><text x="935" y="76" font-size="12" font-weight="600" fill="#1f2328">미장</text><text x="967" y="76" font-size="12" fill="#59636e">$104,348 +3.4%</text><line x1="52" y1="378.0" x2="900" y2="378.0" stroke="#e7ebf0" stroke-width="1"/><text x="44" y="375.0" font-size="10.5" fill="#59636e" text-anchor="end">-11.0%</text><line x1="52" y1="284.0" x2="900" y2="284.0" stroke="#e7ebf0" stroke-width="1"/><text x="44" y="281.0" font-size="10.5" fill="#59636e" text-anchor="end">-4.7%</text><line x1="52" y1="190.0" x2="900" y2="190.0" stroke="#e7ebf0" stroke-width="1"/><text x="44" y="187.0" font-size="10.5" fill="#59636e" text-anchor="end">+1.6%</text><line x1="52" y1="96.0" x2="900" y2="96.0" stroke="#e7ebf0" stroke-width="1"/><text x="44" y="93.0" font-size="10.5" fill="#59636e" text-anchor="end">+7.9%</text><line x1="52" y1="213.8" x2="900" y2="213.8" stroke="#59636e" stroke-width="1" stroke-dasharray="4 3"/><text x="52.0" y="404" font-size="10.5" fill="#59636e" text-anchor="middle">07/15</text><text x="334.7" y="404" font-size="10.5" fill="#59636e" text-anchor="middle">07/18</text><text x="617.3" y="404" font-size="10.5" fill="#59636e" text-anchor="middle">07/21</text><text x="900.0" y="404" font-size="10.5" fill="#59636e" text-anchor="middle">07/24</text><polyline points="52.0,213.8 146.2,226.4 240.4,252.9 334.7,253.3 428.9,253.0 523.1,197.9 617.3,148.7 711.6,130.6 805.8,135.7 900.0,175.7" fill="none" stroke="#1f2328" stroke-width="3.0" stroke-linejoin="round" stroke-linecap="round"/><circle cx="900.0" cy="175.7" r="6" fill="#ffffff"/><circle cx="900.0" cy="175.7" r="4" fill="#1f2328"/><polyline points="52.0,213.8 146.2,206.5 240.4,221.1 334.7,228.2 428.9,223.5 523.1,223.5 617.3,212.0 711.6,195.5 805.8,204.1 900.0,226.9" fill="none" stroke="#0d9488" stroke-width="2.0" stroke-linejoin="round" stroke-linecap="round"/><circle cx="900.0" cy="226.9" r="6" fill="#ffffff"/><circle cx="900.0" cy="226.9" r="4" fill="#0d9488"/><polyline points="52.0,213.8 146.2,286.8 523.1,358.6 617.3,325.5 711.6,326.9 805.8,301.4 900.0,339.0" fill="none" stroke="#4a3aa7" stroke-width="2.0" stroke-linejoin="round" stroke-linecap="round"/><circle cx="900.0" cy="339.0" r="6" fill="#ffffff"/><circle cx="900.0" cy="339.0" r="4" fill="#4a3aa7"/><polyline points="617.3,213.8 711.6,214.4 805.8,216.5 900.0,212.7" fill="none" stroke="#bf3989" stroke-width="2.0" stroke-linejoin="round" stroke-linecap="round" stroke-dasharray="6 4"/><circle cx="900.0" cy="212.7" r="6" fill="#ffffff"/><circle cx="900.0" cy="212.7" r="4" fill="#bf3989"/><polyline points="52.0,213.8 240.4,254.0 523.1,187.5 617.3,134.8 711.6,115.4 805.8,122.2 900.0,163.5" fill="none" stroke="#eb6834" stroke-width="2.0" stroke-linejoin="round" stroke-linecap="round"/><circle cx="900.0" cy="163.5" r="6" fill="#ffffff"/><circle cx="900.0" cy="163.5" r="4" fill="#eb6834"/></svg>